<?xml version="1.0" encoding="utf-8"?>
<!-- Generator: Adobe Illustrator 18.1.1, SVG Export Plug-In . SVG Version: 6.00 Build 0)  -->
<!DOCTYPE svg PUBLIC "-//W3C//DTD SVG 1.1//EN" "http://www.w3.org/Graphics/SVG/1.1/DTD/svg11.dtd">
<svg version="1.1" id="Ebene_1" xmlns="http://www.w3.org/2000/svg" xmlns:xlink="http://www.w3.org/1999/xlink" x="0px" y="0px"
	 viewBox="0 0 173 33" enable-background="new 0 0 173 33" xml:space="preserve">
<g>
	<g>
		<path fill="#3EA7B3" d="M6.2,19.6l-1.1,5.6H0.5L5.8,0.8h5.7l4.7,24.5h-4.6l-1.1-5.6H6.2z M10.1,15.9l-0.8-5.1
			C9.1,9.3,8.8,6.9,8.5,5.3H8.4c-0.3,1.6-0.6,4.2-0.9,5.6l-0.9,5.1H10.1z"/>
		<path fill="#3EA7B3" d="M18.5,0.1h4.7v25.1h-4.7V0.1z"/>
		<path fill="#3EA7B3" d="M26.6,0.1h4.7v25.1h-4.7V0.1z"/>
		<path fill="#3EA7B3" d="M40.3,2.7v4.8h3.5v3.4h-3.5v8.1c0,2.1,0.9,2.6,1.8,2.6c0.5,0,0.8,0,1.2-0.1l0,3.7
			c-0.7,0.2-1.6,0.3-2.9,0.3c-1.4,0-2.6-0.3-3.4-1.1c-1-0.9-1.5-2.3-1.5-5.1v-8.4h-2.1V7.5h2.1V3.8L40.3,2.7z"/>
		<path fill="#3EA7B3" d="M54,25.2l-0.3-1.7h-0.1c-1,1.4-2.4,2-3.9,2c-2.7,0-4.7-2.3-4.7-5.4c0-4.6,4.1-6.6,8.1-6.6v-0.4
			c0-1.4-0.8-2.4-2.5-2.4c-1.4,0-2.6,0.4-3.6,1l-0.9-3.2c1-0.6,3-1.3,5.5-1.3c5.4,0,6.3,3.8,6.3,7.4v6.6c0,1.4,0.1,2.9,0.3,4.1H54z
			 M53.3,16.6c-1.6,0-3.8,0.5-3.8,3c0,1.8,1,2.4,1.7,2.4c0.8,0,1.6-0.5,2-1.5c0.1-0.3,0.1-0.5,0.1-0.8V16.6z"/>
		<path fill="#3EA7B3" d="M74.4,7.5c-0.1,1.6-0.2,3.5-0.2,5.6v10.1c0,3.8-0.7,5.9-2.1,7.3c-1.3,1.2-3.2,2-5.8,2
			c-1.6,0-3.2-0.3-4.4-0.8l0.9-3.7c0.9,0.4,2,0.8,3.4,0.8c2.4,0,3.3-1.6,3.3-4.3v-1.1h-0.1c-0.6,1.1-1.8,1.8-3.2,1.8
			c-4,0-5.5-4.4-5.5-8.6c0-5.9,2.7-9.3,6-9.3c1.4,0,2.6,0.7,3.3,2.1H70l0.3-1.8H74.4z M69.5,13.9c0-0.5-0.1-0.9-0.2-1.3
			c-0.2-0.8-0.7-1.5-1.5-1.5c-1.7,0-2.4,2.3-2.4,5.2c0,3.3,0.9,5,2.3,5c0.6,0,1.2-0.3,1.6-1.3c0.1-0.4,0.2-0.9,0.2-1.4V13.9z"/>
		<path fill="#3EA7B3" d="M77.4,20.9c0.7,0.4,2,0.9,3.2,0.9c1.2,0,1.9-0.5,1.9-1.6c0-0.9-0.5-1.5-2.1-2.4c-2.9-1.6-3.6-3.5-3.6-5.1
			c0-3.2,2.3-5.6,5.8-5.6c1.5,0,2.6,0.4,3.6,0.8l-0.8,3.5c-0.7-0.4-1.5-0.7-2.5-0.7c-1.2,0-1.8,0.7-1.8,1.5c0,0.8,0.4,1.2,2.1,2.2
			c2.6,1.5,3.6,3.3,3.6,5.4c0,3.6-2.6,5.6-6.3,5.6c-1.5,0-3.2-0.4-4.1-1L77.4,20.9z"/>
		<path fill="#3EA7B3" d="M89.1,20.9c0.7,0.4,2,0.9,3.2,0.9c1.2,0,1.9-0.5,1.9-1.6c0-0.9-0.5-1.5-2.1-2.4c-2.9-1.6-3.6-3.5-3.6-5.1
			c0-3.2,2.3-5.6,5.8-5.6C95.9,7.2,97,7.5,98,8l-0.8,3.5c-0.7-0.4-1.5-0.7-2.5-0.7c-1.2,0-1.8,0.7-1.8,1.5c0,0.8,0.4,1.2,2.1,2.2
			c2.6,1.5,3.6,3.3,3.6,5.4c0,3.6-2.6,5.6-6.3,5.6c-1.5,0-3.2-0.4-4.1-1L89.1,20.9z"/>
		<path fill="#3EA7B3" d="M101,13.1c0-2.1-0.1-4-0.1-5.6h4.1l0.3,2h0.1c0.7-1.5,2.1-2.3,3.7-2.3c3.9,0,5.5,4.2,5.5,9.1
			c0,6.3-2.8,9.2-5.8,9.2c-1.4,0-2.4-0.9-2.9-1.7h-0.1v8.4H101V13.1z M105.7,18.7c0,0.6,0.1,1.2,0.3,1.5c0.4,1.1,1,1.4,1.5,1.4
			c1.7,0,2.2-2.5,2.2-5.3c0-3.4-0.8-5.2-2.2-5.2c-0.7,0-1.4,0.7-1.6,1.5c-0.2,0.4-0.2,0.8-0.2,1.3V18.7z"/>
		<path fill="#3EA7B3" d="M130.2,19.8c0,1.9,0.1,3.7,0.1,5.4h-4.1l-0.3-1.9h-0.1c-0.8,1.2-2.3,2.2-4.1,2.2c-3.4,0-4.7-2.5-4.7-7.3
			V7.5h4.8v10.2c0,2.3,0.4,3.8,1.8,3.8c0.8,0,1.3-0.6,1.5-1.2c0.2-0.4,0.3-0.9,0.3-1.5V7.5h4.7V19.8z"/>
		<path fill="#3EA7B3" d="M133.5,12.8c0-1.8-0.1-3.7-0.1-5.3h4.1l0.3,2.6h0.1c0.8-1.9,2.2-2.9,3.5-2.9c0.5,0,0.7,0,1,0.1V12
			c-0.3-0.1-0.6-0.1-1-0.1c-1,0-2.4,0.7-2.9,2.5c-0.1,0.4-0.2,1-0.2,1.8v9h-4.8V12.8z"/>
		<path fill="#3EA7B3" d="M148,18c0.1,2.8,1.7,3.8,3.8,3.8c1.3,0,2.5-0.3,3.4-0.6l0.7,3.4c-1.2,0.5-3.1,0.8-4.9,0.8
			c-4.8,0-7.5-3.2-7.5-8.7c0-6,3.1-9.5,7.1-9.5c3.8,0,6,3,6,8.4c0,1.3,0,2-0.1,2.5H148z M152.2,14.7c0-2.3-0.6-4.1-2-4.1
			c-1.6,0-2.2,2.3-2.2,4.1H152.2z"/>
		<path fill="#3EA7B3" d="M159.2,12.8c0-2-0.1-3.7-0.1-5.3h4.1l0.2,2h0.1c0.9-1.4,2.5-2.3,4.3-2.3c3.4,0,4.7,2.7,4.7,6.6v11.4h-4.7
			V14.1c0-1.5-0.4-2.9-1.7-2.9c-0.8,0-1.4,0.5-1.8,1.6c-0.1,0.4-0.3,0.9-0.3,1.6v10.8h-4.7V12.8z"/>
	</g>
</g>
</svg>
