<?xml version="1.0" encoding="utf-8"?>
<!-- Generator: Adobe Illustrator 18.1.1, SVG Export Plug-In . SVG Version: 6.00 Build 0)  -->
<svg version="1.1" id="Ebene_1" xmlns="http://www.w3.org/2000/svg" xmlns:xlink="http://www.w3.org/1999/xlink" x="0px" y="0px"
	 viewBox="0 0 37 37" enable-background="new 0 0 37 37" xml:space="preserve">
<g>
	<path fill="#A9BD47" d="M32,37H5c-2.8,0-5-2.2-5-5V5c0-2.8,2.2-5,5-5h27c2.8,0,5,2.2,5,5v27C37,34.8,34.8,37,32,37z"/>
	<g>
		<g>
			<path fill="#FFFFFF" d="M19,7.5c3.9,0,7,3.1,7,7c0,3.9-7,14.5-7,14.5s-7-10.6-7-14.5C12,10.6,15.2,7.5,19,7.5 M19,5.5
				c-5,0-9,4-9,9c0,4.2,6.1,13.7,7.3,15.6c0.4,0.6,1,0.9,1.7,0.9c0.7,0,1.3-0.3,1.7-0.9c1.2-1.9,7.3-11.4,7.3-15.6
				C28,9.5,24,5.5,19,5.5L19,5.5z"/>
		</g>
		<path fill="#FFFFFF" d="M19,16.4c-1.6,0-2.9-1.3-2.9-2.9c0-1.6,1.3-2.9,2.9-2.9c1.6,0,2.9,1.3,2.9,2.9
			C21.9,15.1,20.6,16.4,19,16.4z"/>
	</g>
</g>
</svg>
