<?xml version="1.0" encoding="utf-8"?>
<!-- Generator: Adobe Illustrator 18.1.1, SVG Export Plug-In . SVG Version: 6.00 Build 0)  -->
<svg version="1.1" id="Ebene_1" xmlns="http://www.w3.org/2000/svg" xmlns:xlink="http://www.w3.org/1999/xlink" x="0px" y="0px"
	 viewBox="0 0 37 37" enable-background="new 0 0 37 37" xml:space="preserve">
<g>
	<path fill="#A9BD47" d="M32,37H5c-2.8,0-5-2.2-5-5V5c0-2.8,2.2-5,5-5h27c2.8,0,5,2.2,5,5v27C37,34.8,34.8,37,32,37z"/>
	<g>
		<path fill="#FFFFFF" d="M28.3,27c0,0.8-0.7,1.5-1.5,1.5H10.2c-0.8,0-1.5-0.7-1.5-1.5V12c0-0.8,0.7-1.5,1.5-1.5h1.5V9.3
			c0-1,0.8-1.9,1.9-1.9h0.8c1,0,1.9,0.8,1.9,1.9v1.1h4.5V9.3c0-1,0.8-1.9,1.9-1.9h0.8c1,0,1.9,0.8,1.9,1.9v1.1h1.5
			c0.8,0,1.5,0.7,1.5,1.5V27z M26.8,27V15H10.2v12H26.8z M14.7,9.3c0-0.2-0.2-0.4-0.4-0.4h-0.8c-0.2,0-0.4,0.2-0.4,0.4v3.4
			c0,0.2,0.2,0.4,0.4,0.4h0.8c0.2,0,0.4-0.2,0.4-0.4V9.3z M23.8,9.3c0-0.2-0.2-0.4-0.4-0.4h-0.8c-0.2,0-0.4,0.2-0.4,0.4v3.4
			c0,0.2,0.2,0.4,0.4,0.4h0.8c0.2,0,0.4-0.2,0.4-0.4V9.3z"/>
	</g>
</g>
</svg>
