<?xml version="1.0" encoding="utf-8"?>
<!-- Generator: Adobe Illustrator 18.1.1, SVG Export Plug-In . SVG Version: 6.00 Build 0)  -->
<svg version="1.1" id="Ebene_1" xmlns="http://www.w3.org/2000/svg" xmlns:xlink="http://www.w3.org/1999/xlink" x="0px" y="0px"
	 viewBox="0 0 9 12" enable-background="new 0 0 9 12" xml:space="preserve">
<g>
	<path fill="#A9BD47" d="M-251.5,37h-27c-2.8,0-5-2.2-5-5V5c0-2.8,2.2-5,5-5h27c2.8,0,5,2.2,5,5v27C-246.5,34.8-248.7,37-251.5,37z"
		/>
	<g>
		<g>
			<path fill="#FFFFFF" d="M-264.5,7.5c3.9,0,7,3.1,7,7c0,3.9-7,14.5-7,14.5s-7-10.6-7-14.5C-271.5,10.6-268.3,7.5-264.5,7.5
				 M-264.5,5.5c-5,0-9,4-9,9c0,4.2,6.1,13.7,7.3,15.6c0.4,0.6,1,0.9,1.7,0.9c0.7,0,1.3-0.3,1.7-0.9c1.2-1.9,7.3-11.4,7.3-15.6
				C-255.5,9.5-259.5,5.5-264.5,5.5L-264.5,5.5z"/>
		</g>
		<path fill="#FFFFFF" d="M-264.5,16.4c-1.6,0-2.9-1.3-2.9-2.9c0-1.6,1.3-2.9,2.9-2.9c1.6,0,2.9,1.3,2.9,2.9
			C-261.6,15.1-262.9,16.4-264.5,16.4z"/>
	</g>
</g>
<g>
	<path fill="#A9BD47" d="M-191,37h-27c-2.8,0-5-2.2-5-5V5c0-2.8,2.2-5,5-5h27c2.8,0,5,2.2,5,5v27C-186,34.8-188.2,37-191,37z"/>
	<g>
		
			<polyline fill="none" stroke="#FFFFFF" stroke-width="2.5" stroke-linecap="round" stroke-linejoin="round" stroke-miterlimit="10" points="
			-196.5,20.4 -193.3,23.6 -196.5,26.9 		"/>
		
			<line fill="none" stroke="#FFFFFF" stroke-width="2.5" stroke-linecap="round" stroke-linejoin="round" stroke-miterlimit="10" x1="-215.7" y1="23.6" x2="-193.3" y2="23.6"/>
		
			<polyline fill="none" stroke="#FFFFFF" stroke-width="2.5" stroke-linecap="round" stroke-linejoin="round" stroke-miterlimit="10" points="
			-212.5,16.5 -215.7,13.3 -212.5,10 		"/>
		
			<line fill="none" stroke="#FFFFFF" stroke-width="2.5" stroke-linecap="round" stroke-linejoin="round" stroke-miterlimit="10" x1="-193.3" y1="13.3" x2="-215.7" y2="13.3"/>
	</g>
</g>
<g>
	<path fill="#A9BD47" d="M-118,37h-27c-2.8,0-5-2.2-5-5V5c0-2.8,2.2-5,5-5h27c2.8,0,5,2.2,5,5v27C-113,34.8-115.2,37-118,37z"/>
	<g>
		
			<line fill="none" stroke="#FFFFFF" stroke-width="2.5" stroke-linecap="round" stroke-linejoin="round" stroke-miterlimit="10" x1="-127.7" y1="7.1" x2="-120.8" y2="13.5"/>
		
			<line fill="none" stroke="#FFFFFF" stroke-width="2.5" stroke-linecap="round" stroke-linejoin="round" stroke-miterlimit="10" x1="-121" y1="6.8" x2="-127.4" y2="13.8"/>
		<g>
			<g>
				
					<path fill="none" stroke="#FFFFFF" stroke-width="2.5" stroke-linecap="round" stroke-linejoin="round" stroke-dasharray="3.5,5" d="
					M-147.3,22.6c9.5-3,15.3,11,20.5,9.4c8.9-2.8,3-7.4,2.8-15.5"/>
			</g>
		</g>
	</g>
</g>
<g>
	<path fill="#A9BD47" d="M-45,37h-27c-2.8,0-5-2.2-5-5V5c0-2.8,2.2-5,5-5h27c2.8,0,5,2.2,5,5v27C-40,34.8-42.2,37-45,37z"/>
	<text transform="matrix(1 0 0 1 -68.2856 25.5278)" fill="#FFFFFF" font-family="'FontAwesome'" font-size="21.0775"></text>
</g>
<g>
	<path fill="#999999" d="M8.3,4.9H0.7c-0.3,0-0.5-0.2-0.5-0.5c0-0.1,0.1-0.3,0.2-0.4l3.8-3.8c0.1-0.1,0.2-0.2,0.4-0.2
		s0.3,0.1,0.4,0.2L8.6,4c0.1,0.1,0.2,0.2,0.2,0.4C8.8,4.7,8.5,4.9,8.3,4.9z M8.6,8l-3.8,3.8c-0.1,0.1-0.2,0.2-0.4,0.2
		s-0.3-0.1-0.4-0.2L0.4,8C0.3,7.9,0.2,7.8,0.2,7.6c0-0.3,0.2-0.5,0.5-0.5h7.5c0.3,0,0.5,0.2,0.5,0.5C8.8,7.8,8.7,7.9,8.6,8z"/>
</g>
</svg>
